<svg width="218" height="215" viewBox="0 0 218 215" fill="none" xmlns="http://www.w3.org/2000/svg">
<path fill-rule="evenodd" clip-rule="evenodd" d="M199.641 128.948C189.197 170.614 151.324 201.485 106.203 201.485C53.0217 201.485 9.9093 158.599 9.9093 105.697C9.9093 52.7948 53.0217 9.90909 106.203 9.90909C159.096 9.90909 202.028 52.329 202.494 104.834C203.817 105.824 204.984 107.066 205.92 108.541C210.062 115.068 208.1 123.699 201.539 127.819C200.909 128.215 200.276 128.591 199.641 128.948Z" fill="white"/>
<path d="M106.243 0C163.008 7.14229e-05 209.371 44.9807 212.332 101.592C212.968 102.381 213.564 103.214 214.112 104.091C221.122 115.313 218.37 129.952 208.13 137.856C195.119 182.277 154.441 214.697 106.243 214.697C47.5666 214.697 7.30599e-05 166.635 0 107.348C0 48.0616 47.5665 0 106.243 0ZM22.6407 107.348C22.6408 154.001 60.0707 191.821 106.243 191.821C145.401 191.821 178.297 164.607 187.365 127.862L187.439 127.577C188.24 124.655 190.158 122.168 192.778 120.672C193.012 120.538 193.246 120.401 193.479 120.26L194.177 119.826C195.358 119.073 195.711 117.494 194.966 116.301C194.786 116.014 194.577 115.793 194.352 115.622C191.539 113.483 189.872 110.142 189.841 106.585C189.436 60.2853 152.163 22.8764 106.243 22.8764C60.0707 22.8764 22.6407 60.6959 22.6407 107.348Z" fill="white"/>
<path d="M201.485 105.697C201.485 158.599 158.599 201.485 105.697 201.485C52.795 201.485 9.9093 158.599 9.9093 105.697C9.9093 52.7948 52.795 9.90909 105.697 9.90909C158.599 9.90909 201.485 52.7948 201.485 105.697Z" fill="#FDD735"/>
<path d="M198.551 107.348C198.551 55.1829 156.979 12.8942 105.697 12.8941C54.4157 12.8941 12.8437 55.1828 12.8437 107.348C12.8438 159.514 54.4157 201.803 105.697 201.803C156.979 201.803 198.551 159.514 198.551 107.348ZM201.485 107.348C201.485 161.163 158.599 204.788 105.697 204.788C52.7951 204.788 9.90937 161.163 9.9093 107.348C9.9093 53.5343 52.7951 9.90909 105.697 9.90909C158.599 9.90916 201.485 53.5343 201.485 107.348Z" fill="black"/>
<path fill-rule="evenodd" clip-rule="evenodd" d="M171.488 108.376C170.136 120.257 169.132 126.322 165.248 135.578C171.98 137.123 186.706 137.646 200.084 129.202C206.602 125.088 208.55 116.47 204.436 109.953C200.323 103.436 191.705 101.488 185.188 105.601C182.604 107.232 179.675 108.09 176.88 108.422C175.501 108.586 174.251 108.609 173.238 108.562C172.736 108.539 172.319 108.499 172.001 108.458C171.691 108.419 171.488 108.376 171.488 108.376Z" fill="#EF4321"/>
<path d="M165.193 135.82C171.97 137.375 186.769 137.9 200.217 129.411C206.85 125.224 208.833 116.453 204.646 109.82C200.459 103.188 191.688 101.205 185.055 105.392C182.509 106.998 179.618 107.847 176.85 108.176C175.486 108.338 174.25 108.362 173.25 108.315C172.754 108.292 172.344 108.253 172.032 108.213C171.882 108.194 171.758 108.173 171.671 108.158C171.628 108.15 171.594 108.144 171.571 108.14C171.56 108.138 171.552 108.135 171.547 108.134C171.544 108.134 171.542 108.134 171.54 108.134L171.539 108.134L171.272 108.078L171.242 108.348C169.891 120.221 168.89 126.258 165.02 135.482L164.906 135.754L165.193 135.82ZM165.591 135.398C169.365 126.331 170.379 120.265 171.704 108.664C171.78 108.677 171.869 108.692 171.969 108.705C172.295 108.747 172.718 108.786 173.227 108.81C174.252 108.857 175.516 108.833 176.909 108.668C179.733 108.332 182.699 107.465 185.32 105.811C191.721 101.77 200.187 103.684 204.227 110.085C208.268 116.487 206.353 124.952 199.952 128.992C186.831 137.274 172.403 136.881 165.591 135.398Z" fill="black"/>
<path d="M85.8789 80.9242C85.8789 96.43 82.1819 109 77.6213 109C73.0608 109 69.3638 96.43 69.3638 80.9242C69.3638 65.4184 73.0608 52.8484 77.6213 52.8484C82.1819 52.8484 85.8789 65.4184 85.8789 80.9242Z" fill="black"/>
<path d="M142.03 80.9242C142.03 96.43 138.333 109 133.772 109C129.212 109 125.515 96.43 125.515 80.9242C125.515 65.4184 129.212 52.8484 133.772 52.8484C138.333 52.8484 142.03 65.4184 142.03 80.9242Z" fill="black"/>
<path d="M39.6364 107.201C39.6364 106.37 40.2919 105.697 41.1005 105.697C41.9091 105.697 42.5646 106.37 42.5646 107.201C42.5647 124.401 49.2163 140.896 61.0559 153.059C72.8955 165.221 88.9538 172.053 105.697 172.053C122.441 172.053 138.499 165.221 150.339 153.059C162.179 140.896 168.829 124.401 168.829 107.201C168.829 106.37 169.485 105.697 170.293 105.697C171.102 105.697 171.758 106.37 171.758 107.201C171.757 125.199 164.798 142.459 152.409 155.185C140.021 167.912 123.218 175.061 105.697 175.061C88.1771 175.061 71.3743 167.911 58.9855 155.185C46.5968 142.459 39.6364 125.199 39.6364 107.201Z" fill="black"/>
<path d="M164.916 137.028C171.921 138.634 187.078 139.17 200.879 130.46C208.091 125.908 210.247 116.37 205.694 109.158C201.142 101.946 191.606 99.7904 184.394 104.342C182.037 105.83 179.331 106.632 176.704 106.944C175.412 107.098 174.244 107.119 173.308 107.076C172.845 107.054 172.468 107.018 172.191 106.982C172.062 106.965 171.956 106.949 171.885 106.936C171.849 106.93 171.823 106.925 171.807 106.922C171.8 106.921 171.795 106.919 171.792 106.919L171.792 106.919L171.792 106.919L171.794 106.919L171.183 109.831L171.185 109.832C171.187 109.832 171.188 109.833 171.19 109.833C171.193 109.834 171.198 109.835 171.203 109.836C171.213 109.838 171.227 109.84 171.243 109.843C171.275 109.849 171.319 109.858 171.373 109.867C171.481 109.886 171.631 109.91 171.811 109.933C172.171 109.979 172.628 110.022 173.169 110.048C174.259 110.098 175.591 110.073 177.056 109.899C180.019 109.547 183.172 108.632 185.982 106.858C191.804 103.183 199.503 104.925 203.178 110.747C206.853 116.569 205.112 124.268 199.29 127.943C186.335 136.121 172.04 135.61 165.581 134.128L164.916 137.028Z" fill="black"/>
<path d="M171.345 117.581C172.956 117.757 177.976 117.692 184.06 115.777C184.843 115.531 185.678 115.966 185.925 116.749C186.172 117.533 185.736 118.368 184.952 118.615C178.504 120.644 173.071 120.763 171.021 120.539L171.345 117.581Z" fill="black"/>
</svg>
