<svg width="1434" height="288" viewBox="0 0 1434 288" fill="none" xmlns="http://www.w3.org/2000/svg">
<path d="M1382.53 287.7C1345.43 287.7 1319.18 249.55 1319.18 194.6C1319.18 135.1 1344.38 95.9 1382.88 95.9C1411.93 95.9 1431.88 126 1431.88 169.75V178.85H1352.08V186.2C1352.08 235.55 1366.43 263.2 1391.98 263.2C1407.38 263.2 1417.53 254.1 1422.43 234.5L1433.63 238C1429.43 269.15 1410.88 287.7 1382.53 287.7ZM1352.78 163.45H1401.08C1401.08 131.25 1393.38 112 1379.03 112C1364.68 112 1355.58 130.55 1352.78 163.45Z" fill="#3F0000"/>
<path d="M1264.13 287.7C1246.98 287.7 1228.08 280 1219.33 269.15V219.45H1232.98C1236.83 255.15 1246.28 271.25 1263.43 271.25C1277.78 271.25 1288.63 259.35 1288.63 242.2C1288.63 225.75 1281.28 214.55 1267.63 207.55L1253.28 200.2C1230.88 188.65 1220.03 172.2 1220.03 148.4C1220.03 117.95 1242.78 95.9 1271.83 95.9C1286.88 95.9 1301.23 101.15 1311.03 110.95V157.5H1297.38C1293.53 124.95 1286.18 112 1271.13 112C1258.88 112 1250.48 122.85 1250.48 138.95C1250.48 153.65 1257.48 164.5 1270.78 171.15L1284.78 178.15C1308.58 190.4 1319.08 206.5 1319.08 231.35C1319.08 263.55 1294.58 287.7 1264.13 287.7Z" fill="#3F0000"/>
<path d="M1095.74 123.9C1095.74 115.85 1093.29 112.7 1086.64 112L1083.14 111.3V100.45L1121.64 95.9H1128.99L1127.24 130.9V241.5C1127.24 255.15 1133.89 262.5 1145.79 262.5C1155.94 262.5 1166.79 257.25 1174.14 249.2V123.9C1174.14 115.85 1171.69 112.7 1165.04 112L1161.54 111.3V100.45L1199.69 95.9H1207.04L1205.64 130.9V251.65C1205.64 258.65 1207.74 261.8 1214.39 263.2L1217.19 263.9V275.45L1183.24 287.7H1174.49L1175.54 261.1C1163.29 277.9 1148.59 287.7 1133.89 287.7C1110.09 287.7 1095.74 271.95 1095.74 245.35V123.9Z" fill="#3F0000"/>
<path d="M1023.95 287.7C988.25 287.7 964.45 250.25 964.45 193.55C964.45 135.1 989.65 95.9 1027.45 95.9C1063.15 95.9 1086.95 133 1086.95 189.7C1086.95 248.5 1061.75 287.7 1023.95 287.7ZM1027.45 271.25C1044.6 271.25 1053.7 245.35 1053.7 196.35C1053.7 143.5 1042.5 112 1023.95 112C1006.8 112 997.7 137.9 997.7 186.9C997.7 239.75 1008.9 271.25 1027.45 271.25Z" fill="#3F0000"/>
<path d="M863.341 283.85H799.641V270.9C810.141 269.85 814.341 266 814.341 256.2V38.5C814.341 28.7 810.141 24.85 799.641 23.8V10.85H863.341V23.8C852.491 24.85 848.291 28.7 848.291 38.5V136.5H914.441V38.5C914.441 28.7 910.241 24.85 899.741 23.8V10.85H963.441V23.8C952.591 24.85 948.391 28.7 948.391 38.5V256.2C948.391 266 952.591 269.85 963.441 270.9V283.85H899.741V270.9C910.241 269.85 914.441 266 914.441 256.2V152.95H848.291V256.2C848.291 266 852.491 269.85 863.341 270.9V283.85Z" fill="#3F0000"/>
<path d="M760.905 120.4H732.555V257.25C732.555 267.75 735.355 270.9 746.905 272.3V283.85H689.505V272.3C698.255 270.9 701.055 267.4 701.055 257.95V120.4H683.555V108.15C688.805 106.05 695.455 102.2 701.055 98.35V75.25C701.055 26.25 718.905 0 752.155 0C773.505 0 789.605 13.65 789.605 31.5C789.605 38.15 787.505 43.75 783.655 47.25H761.255V36.4C761.255 23.1 756.705 15.75 749.005 15.75C738.505 15.75 732.555 29.4 732.555 53.9V99.4H760.905V120.4Z" fill="#3F0000"/>
<path d="M622.981 287.7C587.281 287.7 563.481 250.25 563.481 193.55C563.481 135.1 588.681 95.9 626.481 95.9C662.181 95.9 685.981 133 685.981 189.7C685.981 248.5 660.781 287.7 622.981 287.7ZM626.481 271.25C643.631 271.25 652.731 245.35 652.731 196.35C652.731 143.5 641.531 112 622.981 112C605.831 112 596.731 137.9 596.731 186.9C596.731 239.75 607.931 271.25 626.481 271.25Z" fill="#3F0000"/>
<path d="M480.378 61.95H492.628V99.4H520.978V120.4H492.628V245.35C492.628 258.65 499.628 266.7 511.178 266.7C517.478 266.7 521.678 265.3 526.578 261.8V278.6C518.528 285.25 511.528 287.7 499.978 287.7C476.528 287.7 461.128 271.95 461.128 247.8V120.4H443.628V108.15C462.178 94.15 471.278 81.9 480.378 61.95Z" fill="#3F0000"/>
<path d="M405.032 142.1C405.032 128.1 398.732 120.75 386.832 120.75C376.682 120.75 365.132 126.35 358.132 134.75V257.95C358.132 267.4 360.932 270.9 369.682 272.3V283.85H315.082V272.3C323.832 270.9 326.632 267.4 326.632 257.95V123.55L315.782 117.25V108.15L347.982 95.9H359.532L358.482 120.4C370.382 104.65 384.382 95.9 398.382 95.9C422.532 95.9 436.532 111.3 436.532 137.9V257.95C436.532 267.75 439.332 270.9 448.082 272.3V283.85H393.482V272.3C402.232 270.9 405.032 267.4 405.032 257.95V142.1Z" fill="#3F0000"/>
<path d="M250.723 287.7C215.023 287.7 191.223 250.25 191.223 193.55C191.223 135.1 216.423 95.9 254.223 95.9C289.923 95.9 313.723 133 313.723 189.7C313.723 248.5 288.523 287.7 250.723 287.7ZM254.223 271.25C271.373 271.25 280.473 245.35 280.473 196.35C280.473 143.5 269.273 112 250.723 112C233.573 112 224.473 137.9 224.473 186.9C224.473 239.75 235.673 271.25 254.223 271.25Z" fill="#3F0000"/>
<path d="M158.331 257.25C158.331 267.75 161.131 270.9 172.681 272.3V283.85H115.281V272.3C124.031 270.9 126.831 267.4 126.831 257.95V123.55L115.981 117.25V108.15L148.181 95.9H159.731L158.681 137.55C167.081 113.05 178.281 95.9 190.181 95.9C194.731 95.9 197.531 97.3 199.281 100.1V133.7H192.281C177.581 133.7 166.381 140.35 158.331 153.3V257.25Z" fill="#3F0000"/>
<path d="M65.8 27.3H48.65V139.3H64.05C80.15 139.3 85.4 128.1 87.15 103.95H100.8V190.75H87.15C85.4 166.6 80.15 155.4 64.05 155.4H48.65V252.7C48.65 264.95 53.9 269.5 66.85 270.9V283.85H0V270.9C10.5 269.85 14.7 266 14.7 256.2V38.5C14.7 28.7 10.5 24.85 0 23.8V10.85H123.2V80.5H109.55C103.95 37.45 95.55 27.3 65.8 27.3Z" fill="#3F0000"/>
</svg>
